<?xml version="1.0" encoding="UTF-8" standalone="no"?>
<svg
   viewBox="0 0 1024 1024"
   version="1.1"
   id="svg36"
   sodipodi:docname="logo-dark.svg"
   inkscape:version="1.4 (e7c3feb1, 2024-10-09)"
   xml:space="preserve"
   width="1024"
   height="1024"
   xmlns:inkscape="http://www.inkscape.org/namespaces/inkscape"
   xmlns:sodipodi="http://sodipodi.sourceforge.net/DTD/sodipodi-0.dtd"
   xmlns="http://www.w3.org/2000/svg"
   xmlns:svg="http://www.w3.org/2000/svg"><defs
     id="defs36"><inkscape:perspective
       sodipodi:type="inkscape:persp3d"
       inkscape:vp_x="0.28300284 : 0.23746758 : 0"
       inkscape:vp_y="-2.5717584e-16 : 1.4189189 : 0"
       inkscape:vp_z="-0.28300285 : 0.23746758 : 0"
       inkscape:persp3d-origin="0.5 : 524.38649 : 1"
       id="perspective36" /><inkscape:perspective
       sodipodi:type="inkscape:persp3d"
       inkscape:vp_x="-0.3 : 0.10135135 : 0"
       inkscape:vp_y="-2.2043644e-16 : 1.2162162 : 0"
       inkscape:vp_z="0.3 : 0.10135135 : 0"
       inkscape:persp3d-origin="0.5 : 524.42838 : 1"
       id="perspective36-7" /><inkscape:perspective
       sodipodi:type="inkscape:persp3d"
       inkscape:vp_x="-0.2 : 0.067567566 : 0"
       inkscape:vp_y="-1.4695762e-16 : 0.8108108 : 0"
       inkscape:vp_z="0.2 : 0.067567566 : 0"
       inkscape:persp3d-origin="0.5 : 524.5 : 1"
       id="perspective36-5" /></defs><sodipodi:namedview
     id="namedview36"
     pagecolor="#ffffff"
     bordercolor="#000000"
     borderopacity="0.25"
     inkscape:showpageshadow="2"
     inkscape:pageopacity="0.0"
     inkscape:pagecheckerboard="0"
     inkscape:deskcolor="#d1d1d1"
     showgrid="false"
     inkscape:zoom="0.39368053"
     inkscape:cx="292.11503"
     inkscape:cy="537.23764"
     inkscape:window-width="1512"
     inkscape:window-height="916"
     inkscape:window-x="0"
     inkscape:window-y="38"
     inkscape:window-maximized="1"
     inkscape:current-layer="svg36"><inkscape:grid
       id="grid36"
       units="px"
       originx="0"
       originy="0"
       spacingx="1"
       spacingy="1"
       empcolor="#0099e5"
       empopacity="0.30196078"
       color="#0099e5"
       opacity="0.14901961"
       empspacing="5"
       enabled="true"
       visible="false" /></sodipodi:namedview><rect
     style="fill:#0f2537;fill-opacity:1;stroke-width:20.48;stroke-linecap:round"
     id="rect47"
     width="1024"
     height="1024"
     x="0"
     y="0" /><!-- Background --><!-- Grid and axes for visualization --><!-- Isometric grid lines --><!-- Outermost Cube --><!-- Top face --><!-- Right face --><!-- Left face --><!-- Middle Cube - Properly aligned --><!-- Top face --><!-- Right face --><!-- Left face --><!-- Innermost Cube - Properly aligned --><!-- Top face --><!-- Right face --><!-- Left face --><!-- Point markers for visualization --><!-- Middle cube points --><!-- Inner cube points --><g
     sodipodi:type="inkscape:box3d"
     id="g36"
     style="fill:#0f2537;stroke-width:10;stroke-linecap:round"
     inkscape:perspectiveID="#perspective36"
     inkscape:corner0="1 : 0.16 : 0 : 1"
     inkscape:corner7="1.110223e-16 : -0.16666667 : 1 : 1"><path
       sodipodi:type="inkscape:box3dside"
       id="path41"
       style="fill:#e9e9ff;fill-rule:evenodd;stroke:none;stroke-linejoin:round"
       inkscape:box3dsidetype="11"
       d="m 0.49999999,498.91155 -0.28300284,0.23747 0,0.46351 0.28300284,-0.23747 z"
       points="0.21699715,499.14902 0.21699715,499.61253 0.49999999,499.37506 0.49999999,498.91155 " /><path
       sodipodi:type="inkscape:box3dside"
       id="path36"
       style="fill:#353564;fill-rule:evenodd;stroke:none;stroke-linejoin:round"
       inkscape:box3dsidetype="6"
       d="m 0.78300284,499.14902 v 0.46351 l -0.28300285,-0.23747 0,-0.46351 z"
       points="0.78300284,499.61253 0.49999999,499.37506 0.49999999,498.91155 0.78300284,499.14902 " /><path
       sodipodi:type="inkscape:box3dside"
       id="path40"
       style="fill:#afafde;fill-rule:evenodd;stroke:none;stroke-linejoin:round"
       inkscape:box3dsidetype="13"
       d="M 0.78300284,499.61253 0.5,499.85 0.21699715,499.61253 0.49999999,499.37506 Z"
       points="0.5,499.85 0.21699715,499.61253 0.49999999,499.37506 0.78300284,499.61253 " /><path
       sodipodi:type="inkscape:box3dside"
       id="path37"
       style="fill:#0c4673;fill-opacity:1;fill-rule:evenodd;stroke:none;stroke-linejoin:round"
       inkscape:box3dsidetype="5"
       d="M 0.78300284,499.14902 0.5,499.38648 0.21699715,499.14902 0.49999999,498.91155 Z"
       points="0.5,499.38648 0.21699715,499.14902 0.49999999,498.91155 0.78300284,499.14902 " /><path
       sodipodi:type="inkscape:box3dside"
       id="path39"
       style="fill:#8cc1f3;fill-opacity:1;fill-rule:evenodd;stroke:none;stroke-linejoin:round"
       inkscape:box3dsidetype="14"
       d="m 0.5,499.38648 0,0.46352 -0.28300285,-0.23747 0,-0.46351 z"
       points="0.5,499.85 0.21699715,499.61253 0.21699715,499.14902 0.5,499.38648 " /><path
       sodipodi:type="inkscape:box3dside"
       id="path38"
       style="fill:#2496ed;fill-opacity:1;fill-rule:evenodd;stroke:none;stroke-linejoin:round"
       inkscape:box3dsidetype="3"
       d="M 0.78300284,499.14902 0.5,499.38648 l 0,0.46352 0.28300284,-0.23747 z"
       points="0.5,499.38648 0.5,499.85 0.78300284,499.61253 0.78300284,499.14902 " /></g><g
     style="fill:#000000"
     id="g6"
     transform="matrix(14.285714,0,0,14.285714,112.00001,112.00001)"><path
       style="stroke:none;stroke-opacity:1;fill:#075d79;fill-opacity:1"
       d="m 28.0116,54.0156 c 0.8438,0 1.5703,-0.3984 2.5547,-0.9843 L 50.6992,41.1484 c 0.8673,-0.4922 1.2657,-1.3125 1.2657,-2.039 0,-0.961 -0.7032,-1.7344 -1.3363,-2.0625 L 28.9023,49.6094 c -0.3282,0.1875 -0.6328,0.3281 -0.8907,0.3281 -0.2578,0 -0.5624,-0.1406 -0.8906,-0.3281 L 5.3944,37.0469 c -0.6562,0.3281 -1.3593,1.1015 -1.3593,2.0625 0,0.7265 0.4219,1.5468 1.289,2.039 L 25.457,53.0313 c 0.9843,0.5859 1.6874,0.9843 2.5546,0.9843 z"
       id="path8" /><path
       style="stroke:none;stroke-opacity:1;fill:#0cb9ee;fill-opacity:1"
       d="m 28.0116,43.2344 c 0.8438,0 1.5703,-0.3985 2.5547,-0.9844 L 50.6992,30.3672 c 0.8904,-0.5391 1.2657,-1.3125 1.2657,-2.0391 0,-0.9609 -0.7032,-1.7578 -1.3363,-2.0625 L 28.9023,38.8047 c -0.3282,0.1875 -0.6328,0.3281 -0.8907,0.3281 -0.2578,0 -0.5624,-0.1406 -0.8906,-0.3281 L 5.3944,26.2656 c -0.6562,0.3047 -1.3593,1.1016 -1.3593,2.0625 0,0.7266 0.4219,1.5235 1.289,2.0391 L 25.457,42.25 c 0.9843,0.5859 1.6874,0.9844 2.5546,0.9844 z"
       id="path7" /><path
       style="stroke:none;stroke-opacity:1;fill:#0db7ed;fill-opacity:1"
       d="m 28.0116,27.6016 c -0.3281,0 -0.6562,-0.1172 -1.0312,-0.3282 L 9.121,17.0547 C 9.0273,17.0078 8.957,16.9375 8.957,16.8203 c 0,-0.0937 0.0703,-0.1641 0.164,-0.2109 L 26.9804,6.3906 c 0.375,-0.2109 0.7031,-0.3281 1.0312,-0.3281 0.3281,0 0.6563,0.1172 1.0313,0.3281 l 17.8359,10.2188 c 0.1172,0.0468 0.1877,0.1172 0.1877,0.2109 0,0.1172 -0.0705,0.1875 -0.1877,0.2344 L 29.0429,27.2734 c -0.375,0.211 -0.7032,0.3282 -1.0313,0.3282 z"
       id="path6" /><path
       style="stroke:none;stroke-opacity:1;fill:#86ddf8;fill-opacity:1"
       d="m 28.0116,31.6797 c 0.9376,0 1.8516,-0.3047 2.9766,-0.961 L 49.3398,20.0781 c 1.8749,-1.1015 2.6251,-1.9687 2.6251,-3.2578 0,-1.2656 -0.7502,-2.1328 -2.6251,-3.2344 L 30.9882,2.9453 c -1.125,-0.6562 -2.039,-0.9609 -2.9766,-0.9609 -0.9609,0 -1.8515,0.3047 -2.9765,0.9609 L 6.6835,13.5859 c -1.875,1.1016 -2.625,1.9688 -2.625,3.2344 0,1.2891 0.75,2.1563 2.625,3.2578 l 18.3516,10.6406 c 1.125,0.6563 2.0156,0.961 2.9765,0.961 z"
       id="path1" /></g></svg>
